<svg width="2410" height="2538" viewBox="0 0 2410 2538" fill="none" xmlns="http://www.w3.org/2000/svg">
<path d="M2333.95 1271.8C2333.95 1897 1827.12 2403.83 1201.92 2403.83C576.709 2403.83 69.8789 1897 69.8789 1271.8C69.8789 646.588 576.709 139.758 1201.92 139.758C1827.12 139.758 2333.95 646.588 2333.95 1271.8Z" fill="#AEADAD"/>
<g clip-path="url(#clip0_448_138)">
<path d="M585.715 692.569C650.401 730.303 671.646 828.234 692.11 894.506C694.354 901.409 696.818 908.116 699.623 914.8C701.135 913.36 702.647 911.897 704.208 910.409C800.311 820.478 931.805 780.354 1060.62 768.451C1061.47 768.378 1061.47 768.378 1065.76 767.963C1290.43 746.816 1511.91 764.524 1693.55 912.043C1698.28 916.068 1702.65 920.141 1706.99 924.556C1707.06 923.873 1707.06 923.873 1707.43 920.41C1712.77 871.895 1719.99 814.087 1758.41 779.354C1775.33 766.451 1790.48 761.451 1811.9 762.426C1822.75 764.134 1829.19 767.402 1836.26 775.768C1856.73 805.599 1858.05 841.528 1851.75 876.481C1844.19 907.336 1830.04 934.557 1809.43 958.704C1807.92 960.704 1806.41 962.704 1804.85 964.753C1799.36 971.29 1793.6 976.193 1786.87 981.437C1784.7 983.12 1782.53 984.827 1780.29 986.584C1778.63 987.852 1776.99 989.12 1775.29 990.413C1776.72 991.877 1778.14 993.34 1779.6 994.828C1822.65 1040.39 1853.24 1095.42 1875.29 1153.84C1876.05 1155.81 1876.78 1157.76 1877.53 1159.79C1887.12 1185.67 1894.39 1211.84 1900.46 1238.77C1901.05 1241.38 1901.63 1243.99 1902.24 1246.67C1909.83 1281.87 1912.76 1316.14 1912.66 1352.04C1912.66 1358.24 1912.71 1364.46 1912.76 1370.68C1913.05 1442.56 1895.54 1515 1848.46 1570.93C1847.46 1572.17 1847.46 1572.17 1842.31 1578.47C1807.73 1620.52 1769.72 1657.37 1726.5 1690.45C1725.6 1691.18 1725.6 1691.18 1720.94 1694.89C1716.75 1697.77 1716.75 1697.77 1711.87 1697.77C1712.09 1699.98 1712.28 1702.2 1712.48 1704.47C1712.43 1726.94 1701.62 1751.65 1685.99 1767.65C1672.5 1779.79 1657.89 1788.67 1642.06 1797.48C1640.82 1798.18 1640.82 1798.18 1634.6 1801.77C1622.84 1808.36 1613.3 1813.58 1599.67 1814.84C1593.94 1811.23 1592.64 1808.43 1590.57 1801.99C1588.54 1790.7 1586.86 1780.06 1587.47 1768.5C1581.84 1770.11 1576.2 1771.72 1570.4 1773.38C1570.49 1775.26 1570.57 1777.11 1570.67 1779.01C1571.15 1798.21 1570.13 1814.43 1558.98 1830.55C1532.86 1848.19 1476.51 1851.04 1446 1846.55C1431.54 1839.65 1424.76 1828.16 1416.73 1814.84C1414.98 1815.06 1413.22 1815.26 1411.41 1815.48C1403.29 1816.45 1395.14 1817.41 1387.02 1818.36C1384.24 1818.7 1381.49 1819.02 1378.66 1819.36C1377.27 1819.53 1377.27 1819.53 1370.29 1820.33C1367.8 1820.62 1365.31 1820.92 1362.75 1821.21C1337.56 1823.75 1312.6 1825.02 1287.29 1825.11C1284.09 1825.11 1280.9 1825.14 1277.6 1825.16C1267.31 1825.21 1257.04 1825.21 1246.77 1825.21C1245.89 1825.21 1245.89 1825.21 1241.45 1825.21C1188.16 1825.23 1135.47 1824.45 1082.57 1817.28C1079.3 1816.87 1076.03 1816.45 1072.76 1816.01C948.464 1799.75 824.8 1761.89 728.892 1678.25C727.453 1677.01 725.99 1675.74 724.478 1674.45C706.111 1658.37 690.159 1641.54 675.231 1622.15C673.377 1619.88 671.499 1617.59 669.597 1615.22C651.986 1593.3 637.327 1569.71 622.936 1545.56C620.521 1541.56 618.106 1537.56 615.667 1533.59C588.885 1489.97 573.348 1440.9 565.47 1390.43C565.055 1387.75 564.616 1385.04 564.177 1382.26C560.201 1354.28 559.616 1326.58 559.689 1298.36C559.689 1295.96 559.689 1293.55 559.689 1291.06C559.835 1231.18 567.543 1174.67 584.983 1117.25C585.593 1115.22 586.202 1113.2 586.837 1111.1C597.983 1074.91 614.399 1041.29 631.327 1007.49C629.814 1006 628.302 1004.54 626.765 1003C621.033 997.365 615.326 991.706 609.618 986.047C607.155 983.608 604.715 981.193 602.252 978.778C585.544 962.363 570.25 945.435 555.713 926.995C553.493 924.263 551.249 921.532 549.005 918.824C511.052 871.017 489.563 820.551 494.734 758.694C499.979 733.083 513.955 714.546 534.151 698.399C549.64 688.325 568.275 685.837 585.715 692.569Z" fill="#282F36"/>
<path d="M1686.34 1205.42C1697.68 1213.94 1705.56 1222.62 1708.51 1236.69C1712.61 1272.09 1713.59 1310.82 1699.68 1344.09C1698.88 1346.24 1698.07 1348.38 1697.27 1350.6C1683.76 1382.41 1654.95 1402.09 1624.07 1414.82C1611.24 1419.56 1598.19 1423.31 1585.04 1427.02C1582.73 1427.9 1580.43 1428.8 1578.04 1429.7C1532.82 1442.73 1483.33 1424.95 1443.72 1403.26C1413.38 1385.29 1395.3 1359.31 1385.91 1325.67C1382.03 1309.6 1381.59 1294.26 1381.84 1277.77C1381.81 1275.06 1381.81 1272.35 1381.81 1269.57C1382.03 1232.64 1382.03 1232.64 1392.89 1216.5C1466.96 1144.74 1604.51 1154.4 1686.34 1205.42Z" fill="#FEFEFE"/>
<path d="M1365.52 1492.88C1373.69 1494.39 1381.47 1496.37 1389.37 1498.95C1438.3 1514.59 1486.11 1524.25 1537.48 1525.95C1540.41 1526.08 1543.36 1526.17 1546.38 1526.27C1553.58 1526.54 1560.77 1526.78 1567.97 1527.03C1568.82 1582.83 1569.6 1638.67 1570.29 1694.47C1570.38 1703.91 1570.5 1713.33 1570.65 1722.74C1570.8 1734.38 1570.89 1746.01 1570.97 1757.65C1570.99 1761.6 1571.04 1765.53 1571.09 1769.45C1571.68 1812.21 1571.68 1812.21 1558.97 1830.55C1532.87 1848.19 1476.5 1851.02 1446.01 1846.55C1431.69 1839.73 1424.13 1828.46 1416.74 1814.85C1414.03 1806.89 1412.67 1798.99 1411.42 1790.7C1411.03 1788.41 1410.64 1786.09 1410.25 1783.72C1408.98 1776.14 1407.79 1768.55 1406.59 1760.97C1405.69 1755.6 1404.81 1750.26 1403.94 1744.92C1401.59 1730.84 1399.33 1716.77 1397.08 1702.69C1394.81 1688.57 1392.47 1674.47 1390.15 1660.35C1385.93 1634.67 1381.76 1608.98 1377.67 1583.3C1375.98 1572.79 1374.25 1562.27 1372.52 1551.76C1372.3 1550.39 1372.3 1550.39 1371.15 1543.39C1370.28 1538.08 1369.4 1532.78 1368.49 1527.47C1366.62 1515.83 1364.96 1504.73 1365.52 1492.88Z" fill="#FEFEFE"/>
<path d="M1738.7 1475.81C1733.61 1525.15 1727.73 1574.33 1721.39 1623.52C1720.26 1632.3 1719.14 1641.09 1718.02 1649.89C1717.85 1651.26 1717.85 1651.26 1716.97 1658.23C1714.9 1674.89 1713.26 1691.43 1712.53 1708.19C1709.8 1735.68 1696.9 1758.48 1676.29 1776.16C1665.58 1784.43 1653.87 1790.9 1642.07 1797.48C1640.82 1798.19 1640.82 1798.19 1634.58 1801.75C1612.43 1814.22 1612.43 1814.22 1599.67 1814.85C1590.97 1808.22 1590.11 1800.78 1588.31 1790.46C1586.72 1776.43 1587.14 1762.46 1587.45 1748.36C1587.5 1744.99 1587.55 1741.6 1587.62 1738.24C1587.77 1729.28 1587.94 1720.33 1588.14 1711.38C1588.31 1702.14 1588.48 1692.89 1588.62 1683.67C1589.57 1630.65 1590.75 1577.62 1592.36 1524.59C1595.38 1523.98 1598.38 1523.4 1601.5 1522.79C1623.87 1518.25 1645.7 1513.47 1667.21 1505.69C1669.53 1504.86 1671.87 1504.05 1674.26 1503.2C1692.51 1496.59 1709.7 1488.54 1726.78 1479.39C1733.83 1475.81 1733.83 1475.81 1738.7 1475.81Z" fill="#FDFDFE"/>
<path d="M1265.24 925.287C1281.29 930.628 1288.94 945.824 1296.46 959.922C1305.09 977.558 1310.09 995.656 1314.29 1014.8C1314.73 1016.63 1315.16 1018.44 1315.6 1020.32C1319.19 1036.37 1320.02 1051.78 1319.95 1068.17C1319.92 1069.46 1319.92 1069.46 1319.9 1075.98C1319.51 1101.76 1316.85 1126.1 1299.65 1146.52C1290.85 1152.4 1288.09 1153.18 1277.7 1151.4C1256.99 1138.05 1245.82 1117.59 1238.38 1094.69C1237.77 1092.81 1237.16 1090.93 1236.53 1089C1222.94 1045.22 1213.14 985.777 1234.31 943.019C1242.19 929.677 1248.43 922.457 1265.24 925.287Z" fill="#FCFCFC"/>
<path d="M565.249 768.809C599.544 782.81 615.13 824.958 628.887 856.277C634.692 870.107 640.009 884.107 645.229 898.181C647.546 904.401 649.912 910.572 652.278 916.743C653.766 920.719 655.254 924.719 656.742 928.695C657.449 930.524 658.156 932.354 658.888 934.232C662.108 943.184 663.327 947.647 661.254 957.184C658.327 963.258 655.205 968.209 650.839 973.356C602.837 934.744 557.981 894.401 538.638 834.325C537.833 831.91 537.029 829.495 536.199 827.007C534.419 807.665 535.882 790.274 545.956 773.346C553.42 768.37 556.542 767.248 565.249 768.809Z" fill="#FBFBFC"/>
<path d="M1813.25 793.916C1821.2 795.745 1824.06 798.575 1828.96 805.039C1839.81 844.845 1828.01 885.774 1808.67 920.752C1795.93 941.07 1780.47 959.29 1763.1 975.779C1755.86 972.461 1750 968.754 1744.03 963.437C1742.52 962.144 1740.98 960.875 1739.42 959.534C1733.3 948.46 1737.44 936.386 1740.69 924.825C1743.17 916.946 1745.86 909.166 1748.61 901.385C1749.59 898.604 1750.56 895.823 1751.59 892.945C1773.93 830.625 1773.93 830.625 1794.81 807.478C1796.86 805.063 1798.93 802.648 1801.06 800.16C1807.01 795.282 1807.01 795.282 1813.25 793.916Z" fill="#FBFBFB"/>
<path d="M1639.46 951.391C1649.42 955.098 1653.56 961.806 1658.22 970.904C1662.2 981.295 1665.15 991.856 1667.98 1002.61C1668.71 1005.05 1669.44 1007.52 1670.2 1010.03C1675.42 1029.69 1676.05 1048.81 1676.2 1069.08C1676.25 1071.76 1676.27 1074.45 1676.3 1077.23C1676.2 1097.42 1673.44 1116.62 1663.1 1134.33C1657.47 1136.91 1657.47 1136.91 1650.9 1136.77C1632.32 1124.23 1626.85 1098.42 1622.24 1077.76C1621.17 1072.25 1620.15 1066.69 1619.2 1061.15C1618.85 1059.35 1618.54 1057.52 1618.22 1055.66C1613.71 1024.2 1611.49 981.49 1628.95 953.83C1633.83 951.391 1633.83 951.391 1639.46 951.391Z" fill="#FBFBFB"/>
</g>
<defs>
<clipPath id="clip0_448_138">
<rect width="1417.14" height="1156.15" fill="white" transform="translate(494.742 690.402)"/>
</clipPath>
</defs>
</svg>
