<svg width="2410" height="2538" viewBox="0 0 2410 2538" fill="none" xmlns="http://www.w3.org/2000/svg">
<path d="M2333.95 1271.8C2333.95 1897 1827.12 2403.83 1201.92 2403.83C576.709 2403.83 69.8789 1897 69.8789 1271.8C69.8789 646.588 576.709 139.758 1201.92 139.758C1827.12 139.758 2333.95 646.588 2333.95 1271.8Z" fill="#AEADAD"/>
<g clip-path="url(#clip0_448_117)">
<path d="M1155.56 575.41C1247.42 633.07 1310.61 797.222 1330.72 872.091C1356.7 847.787 1416.21 829.349 1465.65 828.511C1515.1 827.673 1587.17 851.139 1645 916.51C1691.26 968.806 1695.57 1060.66 1691.93 1100.05C1706.74 1099.49 1756.3 1098.71 1836.08 1100.05C1915.87 1101.39 1935.26 1162.63 1934.98 1193.08C1935.26 1245.04 1935.65 1359.86 1934.98 1403.44C1934.14 1457.91 1923.25 1476.35 1918.22 1489.76C1885.53 1603.74 1726.3 1766.33 1443.86 1874.44C1217.91 1960.93 1044.1 1922.21 985.43 1892.04C902.46 1864.66 714.227 1798.51 625.055 1752.92C513.59 1695.93 476.714 1623.85 452.41 1571.05C428.105 1518.25 414.696 1345.61 413.858 1296.16C413.02 1246.71 414.696 1230.79 429.782 1215.71C454.589 1183.52 514.428 1143.63 541.247 1127.71C521.133 930.589 667.518 848.345 743.225 831.863C794.851 681.008 887.096 601.949 926.765 581.276C964.758 555.296 1063.71 517.75 1155.56 575.41Z" fill="#282F36"/>
<path d="M1641.65 1103.4C1593.38 1046.41 1501.97 980.201 1462.3 954.221C1514.26 792.471 1621.54 920.697 1634.11 934.945C1671.82 967.63 1676.01 1061.77 1671.82 1103.4H1641.65Z" fill="white"/>
<circle cx="789.317" cy="1099.21" r="224.606" fill="white"/>
<ellipse cx="840.74" cy="1102.96" rx="89.6749" ry="139.122" transform="rotate(-3.65174 840.74 1102.96)" fill="#282F36"/>
<ellipse cx="1580.47" cy="1027.97" rx="58.6658" ry="91.351" transform="rotate(-5.55529 1580.47 1027.97)" fill="#282F36"/>
<ellipse cx="1640.81" cy="1271.02" rx="28.4948" ry="56.1515" fill="white"/>
<ellipse cx="1806.52" cy="1255.61" rx="24.3044" ry="49.4469" transform="rotate(-15.5068 1806.52 1255.61)" fill="white"/>
<path d="M1398.61 1619.66C1109.64 1639.78 719.48 1466.57 560.524 1377.46C644.332 1593.35 972.581 1643.41 1126.23 1641.45C1244.23 2074.57 1582.71 2030.88 1737.19 1954.89C1741.94 1942.6 1744.57 1918.02 1717.08 1918.02C1376.48 2091.67 1200.82 1805.99 1155.56 1641.45C1243.39 1642.79 1354.19 1627.48 1398.61 1619.66Z" fill="white"/>
<circle cx="1787.48" cy="1911.32" r="72.9132" fill="white"/>
</g>
<defs>
<clipPath id="clip0_448_117">
<rect width="1589.01" height="1506.87" fill="white" transform="translate(413.683 545.055)"/>
</clipPath>
</defs>
</svg>
