<svg xmlns="http://www.w3.org/2000/svg" width="20" height="20" viewBox="0 0 20 20" fill="none">
  <path d="M19.0476 2.57824C19.0476 2.42235 18.918 2.29271 18.7621 2.29271H1.24535C1.08949 2.29275 0.959821 2.42238 0.959821 2.57824C0.959815 2.60428 0.95641 2.6296 0.952381 2.65451V13.2404C0.952381 13.3963 1.08202 13.526 1.23791 13.526H9.37965L9.43917 13.5297C9.57751 13.5472 9.70279 13.6248 9.77958 13.7436L12.1661 17.4378L14.5545 13.7436L14.5898 13.6952C14.6796 13.5886 14.813 13.526 14.9544 13.526H18.7621C18.918 13.526 19.0476 13.3963 19.0476 13.2404V2.57824ZM20 13.2404C20 13.9223 19.444 14.4784 18.7621 14.4784H15.2139L12.6962 18.3734L12.6925 18.379C12.4431 18.7531 11.89 18.7531 11.6406 18.379L11.6369 18.3734L9.12016 14.4784H1.23791C0.556037 14.4784 0 13.9223 0 13.2404V2.57824C0 2.54112 0.00498365 2.50504 0.0130208 2.47035C0.0679357 1.83868 0.599829 1.34036 1.24535 1.34033H18.7621C19.444 1.34033 20 1.89637 20 2.57824V13.2404Z" fill="#714BFB"/>
  <path d="M16.0458 7.5721C16.2317 7.75806 16.2317 8.0595 16.0458 8.24547L12.8687 11.4235L12.1953 10.7501L15.0357 7.90878L12.1953 5.06838L12.8687 4.39502L16.0458 7.5721Z" fill="#714BFB"/>
  <path d="M7.79842 5.06838L4.95709 7.90878L7.79842 10.7501L7.12506 11.4235L3.94797 8.24547C3.76219 8.05949 3.76207 7.75801 3.94797 7.5721L7.12506 4.39502L7.79842 5.06838Z" fill="#714BFB"/>
  <path d="M11.6102 4.77809L11.4521 5.22731L9.28227 11.3573L8.38477 11.0402L8.54288 10.591L10.7127 4.46094L11.6102 4.77809Z" fill="#714BFB"/>
</svg>
