<svg width="2410" height="2538" viewBox="0 0 2410 2538" fill="none" xmlns="http://www.w3.org/2000/svg">
<path d="M2333.95 1271.8C2333.95 1897 1827.12 2403.83 1201.92 2403.83C576.709 2403.83 69.8787 1897 69.8787 1271.8C69.8787 646.588 576.709 139.758 1201.92 139.758C1827.12 139.758 2333.95 646.588 2333.95 1271.8Z" fill="#AEADAD"/>
<g clip-path="url(#clip0_448_129)">
<path d="M878.389 560.018C879.42 560.346 879.42 560.346 884.714 562.079C918.262 573.863 950.639 600.36 969.756 630.301C969.756 631.847 969.756 633.393 969.756 634.986C971.021 634.494 972.263 634.002 973.575 633.487C1038.49 608.068 1101.58 590.31 1171.59 586.186C1178.03 585.812 1184.47 585.32 1190.91 584.828C1249.69 580.728 1305.5 590.895 1361.18 609.403C1368.03 611.558 1368.03 611.558 1372.71 611.558C1376.11 608.044 1376.11 608.044 1380.02 603.218C1403.64 575.855 1436.81 554.723 1473.45 550.647C1523.23 547.039 1564 553.107 1602.75 586.514C1628.07 610.293 1645.97 639.133 1647.61 674.626C1648.15 706.276 1645.53 732.211 1627.74 759.387C1625.14 765.126 1626.03 767.328 1628.07 773.209C1632.64 778.175 1637.23 782.791 1642.13 787.406C1655.72 800.666 1668.09 814.348 1679.61 829.435C1680.83 831.005 1682.03 832.551 1683.29 834.167C1703.98 861.039 1722.13 888.59 1738.18 918.46C1739.05 920.053 1739.92 921.646 1740.81 923.286C1768.22 974.592 1787.1 1029.9 1798.65 1086.86C1799.12 1089.11 1799.56 1091.36 1800.03 1093.67C1807.04 1130.2 1809.42 1166.14 1809.35 1203.25C1809.33 1205.4 1809.33 1207.56 1809.33 1209.78C1809.26 1243.85 1807.5 1276.5 1799.09 1309.7C1798.65 1311.43 1798.23 1313.17 1797.76 1314.97C1794.88 1325.91 1791.34 1336.57 1787.38 1347.18C1786.79 1348.8 1786.21 1350.39 1785.6 1352.06C1773.3 1385.16 1756.5 1414.23 1735.21 1442.37C1731.15 1447.92 1731.15 1447.92 1727.78 1453.87C1723.68 1460.34 1719.23 1464.58 1713.44 1469.59C1711.36 1471.42 1709.27 1473.25 1707.12 1475.12C1704.98 1476.97 1702.88 1478.82 1700.7 1480.72C1696.88 1484.24 1693.08 1487.75 1689.26 1491.26C1680.81 1498.97 1672 1505.63 1662.63 1512.21C1649.39 1521.98 1642.13 1531.56 1635.1 1546.32C1634.09 1548.24 1633.11 1550.16 1632.08 1552.13C1625.89 1564.69 1621.32 1577.62 1617.25 1590.97C1616.78 1592.42 1616.33 1593.88 1615.87 1595.35C1614.27 1600.84 1612.96 1606.34 1611.67 1611.92C1611.39 1613.18 1611.39 1613.18 1609.89 1619.53C1602.51 1655.07 1603.52 1691.31 1603.45 1727.44C1603.43 1736.9 1603.38 1746.37 1603.31 1755.86C1603.22 1773.73 1603.14 1791.58 1603.1 1809.46C1603.03 1829.84 1602.93 1850.22 1602.82 1870.58C1602.61 1912.42 1602.44 1954.29 1602.3 1996.13C1595.18 1999.9 1588.06 2003.65 1580.94 2007.4C1578.92 2008.48 1576.93 2009.53 1574.87 2010.63C1458.06 2072.2 1318.76 2108.51 1186.7 2109.05C1185.34 2109.07 1185.34 2109.07 1178.54 2109.1C1169.9 2109.14 1161.28 2109.17 1152.63 2109.17C1149.7 2109.17 1146.75 2109.17 1143.71 2109.17C1100.83 2109.14 1059.04 2108.07 1016.61 2101.55C1014.27 2101.23 1011.95 2100.9 1009.54 2100.57C872.251 2081.36 872.251 2081.36 852.618 2061.73C852.384 2056.6 852.314 2051.46 852.314 2046.31C852.314 2045.49 852.314 2045.49 852.29 2041.37C852.29 2035.86 852.29 2030.36 852.29 2024.85C852.29 2020.92 852.267 2017 852.267 2013.07C852.243 2004.56 852.22 1996.06 852.22 1987.55C852.22 1974.08 852.173 1960.59 852.126 1947.1C852.103 1942.48 852.103 1937.86 852.08 1933.23C852.08 1930.93 852.056 1928.61 852.056 1926.22C851.962 1894.8 851.892 1863.41 851.845 1832.02C851.845 1810.84 851.775 1789.69 851.681 1768.51C851.658 1757.33 851.611 1746.13 851.634 1734.96C851.705 1646.96 851.705 1646.96 842.123 1607.7C840.342 1600.2 838.96 1592.64 837.531 1585.07C834.954 1573.52 831.463 1564.08 822.045 1556.53C809.957 1549.01 797.001 1543.46 784.022 1537.7C767.272 1529.59 752.559 1517.74 737.823 1506.49C735.527 1504.76 733.231 1503.05 730.865 1501.27C663.698 1448.63 620.217 1378.02 599.6 1295.64C599.179 1294 598.757 1292.36 598.335 1290.68C565.771 1156.13 618.975 1007.3 688.133 893.556C688.977 892.198 689.797 890.839 690.663 889.433C692.233 886.856 693.779 884.302 695.396 881.655C696.801 879.383 698.207 877.087 699.66 874.744C702.682 869.262 702.682 869.262 702.682 864.576C699.332 861.718 695.817 859.001 692.28 856.377C659.622 830.653 634.226 793.872 627.713 752.124C622.794 701.731 631.228 659.023 662.269 618.306C713.974 556.527 801.968 531.436 878.389 560.018Z" fill="#FEFEFE"/>
<path d="M1593.37 866.914C1618.3 880.971 1631.02 906.53 1639.94 932.886C1645.52 954.276 1646.1 976.134 1646.81 998.109C1648.66 998.905 1650.49 999.702 1652.38 1000.52C1671.76 1009.47 1687.71 1019.83 1696.01 1040.28C1700.41 1069.8 1688.98 1099.34 1672.41 1123.33C1648.19 1155.33 1617.24 1176.35 1583.55 1197.24C1590.07 1209.68 1597.28 1219.19 1607.28 1229.01C1608.62 1230.35 1609.96 1231.66 1611.34 1233.04C1622.16 1243.47 1633.29 1251.5 1646.81 1258.15C1649.43 1259.61 1652.03 1261.06 1654.73 1262.56C1673.7 1268.44 1692.21 1266.59 1710.55 1259.3C1720.84 1253.82 1729.53 1246.56 1738.36 1239.01C1746.77 1233.74 1751.86 1233.72 1761.6 1234.73C1766.15 1237.35 1766.15 1237.35 1768.63 1241.76C1770.11 1248.2 1770.11 1248.2 1768.63 1255.81C1753.59 1278.09 1721.75 1292.78 1696.01 1297.98C1658.5 1300.96 1629.75 1291.16 1599.95 1267.53C1584.79 1254.13 1571.53 1239.74 1560.12 1223.01C1558.58 1223.01 1557.03 1223.01 1555.44 1223.01C1552.51 1226.64 1549.77 1230.44 1547.1 1234.28C1515.14 1279.29 1473.33 1323.1 1417.22 1335.47C1407.96 1336.5 1398.85 1336.68 1389.55 1336.64C1387.07 1336.64 1384.61 1336.61 1382.05 1336.59C1362.49 1336.17 1347.89 1333.12 1330.53 1323.75C1329.43 1323.21 1329.43 1323.21 1323.83 1320.5C1304.69 1310.82 1284.34 1298.83 1274.31 1279.24C1273.14 1272.21 1273.14 1272.21 1274.31 1265.18C1279.84 1257.71 1283.14 1253.94 1292.44 1252.42C1303.01 1253.87 1308.51 1258.88 1316.64 1265.46C1345.6 1287.6 1369.17 1296.86 1405.5 1293.3C1451.56 1285.71 1485.88 1248.64 1512.68 1213.22C1516.69 1207.41 1519.76 1201.32 1522.64 1194.9C1521.12 1194.39 1519.57 1193.89 1517.98 1193.35C1476.75 1174.94 1435.87 1137.55 1418.55 1095.61C1417.29 1092.03 1416.05 1088.42 1414.87 1084.79C1413.91 1082.19 1412.95 1079.57 1411.95 1076.87C1408.67 1061.06 1406.58 1044.5 1415.04 1030.02C1432.54 1006.47 1459.34 994.923 1487.5 988.738C1490.59 988.738 1493.68 988.738 1496.87 988.738C1496.78 986.77 1496.66 984.825 1496.54 982.787C1495.42 946.521 1504.98 910.935 1528.05 882.283C1546.72 862.697 1568.02 855.622 1593.37 866.914Z" fill="#2A3137"/>
<path d="M1157.62 866.915C1184.09 881.838 1198.22 910.959 1206.23 939.4C1215.22 985.365 1209.86 1032.83 1185.28 1073.08C1173.97 1089.78 1159.61 1100.65 1139.58 1104.73C1121.23 1106.02 1108.16 1097.63 1094.6 1086.06C1066.2 1056.44 1059.95 1015.21 1060.13 976.088C1061.02 940.548 1071.45 904.212 1096.49 877.903C1115.17 861.316 1134.38 856.56 1157.62 866.915Z" fill="#293037"/>
<path d="M889.086 626.756C900.004 633.644 900.004 633.644 904.15 637.322C904.15 639.641 904.15 641.961 904.15 644.35C900.589 647.724 900.589 647.724 895.576 651.238C893.725 652.55 891.898 653.862 890 655.197C888.009 656.603 886.017 658.008 883.956 659.438C863.972 673.775 845.136 688.839 826.839 705.262C825.527 706.433 824.239 707.605 822.88 708.799C785.817 741.856 756.205 779.106 728.443 820.057C709.256 802.791 703.797 774.772 702.251 749.938C701.408 712.056 711.575 678.765 736.643 649.926C778.883 606.819 836.14 596.066 889.086 626.756Z" fill="#293037"/>
<path d="M1543.73 618.584C1567.33 636.858 1581.55 662.277 1588.25 691.21C1588.9 697.723 1589.02 704.142 1588.97 710.678C1588.97 712.412 1588.97 714.145 1588.97 715.949C1588.74 729.608 1586.47 741.766 1581.22 754.464C1574.19 754.464 1574.19 754.464 1570.77 751.676C1569.57 750.388 1568.36 749.099 1567.14 747.764C1565.76 746.335 1564.4 744.882 1562.99 743.406C1561.52 741.837 1560.04 740.267 1558.52 738.651C1515.74 694.607 1462.3 666.728 1407.85 639.669C1418.58 619.662 1438.61 608.323 1459.72 601.365C1489.64 594.547 1518.27 602.63 1543.73 618.584Z" fill="#2B3238"/>
<path d="M1281.34 1255.82C1282.89 1255.82 1284.44 1255.82 1286.03 1255.82C1285.35 1257.08 1284.67 1258.32 1283.97 1259.61C1280.94 1266.01 1278.79 1272.52 1276.66 1279.24C1275.88 1279.24 1275.11 1279.24 1274.31 1279.24C1273.78 1271.35 1273.52 1266.57 1277.55 1259.61C1278.79 1258.37 1280.05 1257.1 1281.34 1255.82Z" fill="#595E64"/>
</g>
<defs>
<clipPath id="clip0_448_129">
<rect width="1215.89" height="1557.93" fill="white" transform="translate(592.573 550.645)"/>
</clipPath>
</defs>
</svg>
