<svg width="2410" height="2538" viewBox="0 0 2410 2538" fill="none" xmlns="http://www.w3.org/2000/svg">
<path d="M2333.95 1271.8C2333.95 1897 1827.12 2403.83 1201.92 2403.83C576.709 2403.83 69.8789 1897 69.8789 1271.8C69.8789 646.588 576.709 139.758 1201.92 139.758C1827.12 139.758 2333.95 646.588 2333.95 1271.8Z" fill="#AEADAD"/>
<g clip-path="url(#clip0_448_108)">
<path d="M1833.95 743.513C1840.92 750.49 1840.16 753.992 1840.37 763.759C1839.58 797.933 1823.7 828.685 1810.57 859.673C1809.28 862.753 1807.99 865.834 1806.64 868.993C1793.77 898.823 1780.76 928.205 1757.59 951.506C1760.12 951.006 1762.62 950.479 1765.2 949.953C1785.45 945.898 1805.72 941.949 1826.05 938.342C1822.02 949.426 1816.49 959.299 1810.43 969.383C1809.41 971.068 1808.41 972.779 1807.35 974.543C1805.17 978.203 1802.98 981.862 1800.8 985.496C1797.4 991.209 1794.03 996.922 1790.66 1002.66C1780.84 1019.35 1770.99 1035.78 1759.67 1051.55C1738.58 1081.38 1738.58 1081.38 1739.61 1093.86C1743.11 1105.58 1749.8 1115.14 1756.72 1125.09C1762.81 1134.57 1766.86 1144.83 1771.07 1155.23C1771.97 1157.31 1772.84 1159.42 1773.73 1161.61C1802.93 1232.85 1820.91 1310.49 1821.31 1387.71C1821.33 1390.06 1821.33 1392.42 1821.36 1394.85C1821.39 1399.8 1821.41 1404.75 1821.41 1409.7C1821.44 1417.07 1821.52 1424.47 1821.6 1431.86C1822.31 1549.5 1781 1658.52 1698.28 1742.72C1591.62 1849.98 1440.6 1902.17 1294.22 1925.65C1292.95 1925.86 1292.95 1925.86 1286.56 1926.97C1204.49 1940.74 1110.1 1941.53 1028.3 1925.65C1025.43 1925.1 1022.56 1924.54 1019.59 1923.99C981.411 1916.46 943.841 1907.25 907.192 1894.06C905.112 1893.29 903.006 1892.56 900.847 1891.77C781.343 1847.96 678.215 1767.5 622.347 1651.34C605.971 1615.87 594.597 1578.93 586.488 1540.76C585.961 1538.36 585.461 1535.97 584.934 1533.49C576.404 1490.71 574.535 1448.32 574.614 1404.8C574.64 1396.19 574.561 1387.58 574.508 1378.97C574.351 1329.13 578.958 1280.08 589.937 1231.4C590.463 1228.98 590.99 1226.53 591.543 1224C592.069 1221.55 592.596 1219.11 593.149 1216.58C593.623 1214.29 594.07 1212 594.571 1209.63C596.519 1201.62 596.519 1201.62 599.573 1193.83C602.838 1184.51 604.549 1177.3 604.417 1167.4C597.151 1154.23 586.777 1144.97 575.825 1134.86C572.797 1131.93 569.769 1128.98 566.742 1126.01C558.817 1118.3 550.787 1110.69 542.704 1103.1C532.91 1093.86 523.221 1084.46 513.532 1075.06C506.002 1067.77 498.446 1060.5 490.811 1053.32C490.127 1052.66 490.126 1052.66 486.599 1049.32C482.834 1045.73 479.069 1042.18 475.304 1038.63C470.143 1033.12 470.143 1033.12 470.143 1027.86C471.354 1027.88 471.354 1027.88 477.515 1027.96C506.713 1028.15 535.753 1026.91 564.925 1025.22C558.238 1019.85 551.524 1014.51 544.784 1009.22C529.593 997.133 516.534 985.022 504.37 969.936C501.869 966.934 499.341 963.933 496.84 960.905C476.725 936.683 458.059 911.645 439.866 885.949C436.206 880.815 432.441 875.76 428.65 870.705C385.472 812.967 385.472 812.967 387.025 778.108C388.868 771.158 390.474 768.63 396.424 764.576C422.595 759.863 446.053 768.735 470.143 777.74C566.136 812.94 680.085 811.045 781.369 814.362C788.794 814.599 796.245 814.889 803.669 815.152C904.401 818.706 904.401 818.706 946.289 796.301C956.531 791.299 967.352 788.166 978.278 784.98C980.437 784.348 982.622 783.716 984.86 783.058C1000.26 778.687 1015.74 775.028 1031.43 771.816C1033.36 771.421 1035.3 771.026 1037.28 770.605C1078.22 762.759 1118.69 760.969 1160.26 761.127C1162.89 761.127 1165.5 761.127 1168.21 761.127C1206.33 761.258 1243.56 762.206 1281.05 769.841C1283.69 770.341 1286.32 770.868 1289 771.395C1357.88 785.006 1445.47 806.99 1501.71 852.143C1516.4 860.147 1530.22 855.224 1545.7 851.064C1549.92 849.826 1554.1 848.563 1558.29 847.272C1559.42 846.93 1559.42 846.93 1565.21 845.193C1572.56 842.981 1579.93 840.717 1587.28 838.453C1589.8 837.689 1592.3 836.925 1594.91 836.136C1732.58 794.089 1732.58 794.089 1789.19 756.677C1804.69 746.646 1815.23 741.222 1833.95 743.513Z" fill="#282F36"/>
<path d="M1156.32 944.102C1172.78 958.162 1186.07 974.011 1199.45 990.993C1220.85 1018.06 1251.39 1042.68 1286.33 1048.91C1324.72 1051.39 1354.5 1045.6 1386.38 1022.59C1391.04 1018.19 1395.38 1013.58 1399.75 1008.9C1430.82 979.619 1472.45 968.43 1514.1 968.667C1579.81 970.799 1643.9 1006.63 1688.5 1053.81C1693.21 1059.1 1697.76 1064.53 1702.32 1069.98C1703.9 1071.79 1705.48 1073.64 1707.11 1075.51C1772.72 1153.25 1803.47 1256.04 1797.1 1356.96C1791.78 1416.67 1768.61 1470.01 1726.01 1512.29C1724.35 1514.06 1722.72 1515.82 1721.04 1517.64C1693.29 1545.18 1651.77 1557.23 1613.78 1557.87C1551.22 1557.47 1495.14 1531.64 1450.04 1488.73C1444.28 1483.33 1444.28 1483.33 1437.69 1478.22C1425.79 1468.4 1416.89 1455.95 1407.44 1443.84C1406.55 1442.71 1406.55 1442.71 1402.04 1436.99C1390.25 1421.38 1380.59 1405.06 1371.14 1387.97C1352.94 1355.09 1331.51 1322.44 1294.23 1309.56C1272.67 1305.98 1254.9 1307.7 1236.89 1320.46C1217.17 1336.97 1205.66 1355.95 1193.6 1378.36C1143.34 1471.51 1058.91 1548.44 957.229 1580.74C942.407 1584.77 927.452 1588.09 912.471 1591.28C910.365 1591.75 908.285 1592.22 906.126 1592.7C844.887 1603.62 778.039 1588.06 727.279 1552.78C721.276 1548.23 715.484 1543.49 709.744 1538.62C707.612 1536.93 705.505 1535.22 703.346 1533.49C660.01 1497.05 636.183 1445.15 622.861 1391.18C622.018 1388.05 621.176 1384.92 620.307 1381.68C596.638 1279.6 628.653 1170.97 681.731 1083.67C694.105 1063.87 707.664 1045.52 722.908 1027.85C724.119 1026.43 725.357 1024.98 726.647 1023.48C767.693 976.065 816.136 940.89 872.979 914.641C875.665 913.377 878.376 912.114 881.167 910.797C970.788 870.884 1080.13 881.125 1156.32 944.102Z" fill="#FEFEFE"/>
<path d="M1060.39 1112.11C1090.14 1128.88 1106.02 1161.6 1115.02 1193.57C1125.13 1245.22 1119.1 1298.56 1091.48 1343.8C1078.77 1362.57 1062.63 1374.78 1040.12 1379.36C1019.5 1380.81 1004.81 1371.39 989.566 1358.38C957.657 1325.1 950.627 1278.76 950.838 1234.8C951.838 1194.86 963.554 1154.02 991.699 1124.45C1012.68 1105.81 1034.27 1100.47 1060.39 1112.11Z" fill="#293037"/>
<path d="M1550.09 1112.1C1579.84 1128.87 1595.72 1161.6 1604.73 1193.56C1614.84 1245.22 1608.81 1298.56 1581.19 1343.79C1568.47 1362.56 1552.33 1374.78 1529.82 1379.36C1511.23 1380.68 1498.17 1373.44 1483.77 1362.22C1457.55 1339.21 1443.94 1299.56 1441.04 1265.68C1438.41 1216.57 1444.81 1168.95 1476.69 1129.37C1497.67 1107.36 1521.61 1099.41 1550.09 1112.1Z" fill="#293037"/>
<path d="M1285.82 1383.95C1300.57 1387.42 1311.07 1398.16 1319.47 1410.51C1323.42 1417.51 1327.05 1424.62 1330.58 1431.84C1331.9 1434.44 1333.22 1437.05 1334.56 1439.73C1344.43 1459.48 1353.88 1479.44 1363.18 1499.47C1364.39 1502.13 1365.63 1504.79 1366.92 1507.53C1368.05 1510.03 1369.18 1512.53 1370.36 1515.11C1371.34 1517.3 1372.34 1519.51 1373.37 1521.75C1375.89 1528.22 1377.32 1534.41 1378.47 1541.26C1369.63 1549.1 1361.68 1551.16 1350.17 1553.45C1348.62 1553.74 1348.62 1553.74 1340.82 1555.34C1298.44 1562.77 1248.65 1567.56 1211.55 1541.91C1206.02 1537.62 1202.21 1534.62 1199.44 1528.09C1203.29 1512.43 1211.53 1498.47 1219 1484.31C1220.4 1481.68 1221.79 1479.02 1223.24 1476.3C1227.59 1468.12 1231.93 1459.93 1236.3 1451.74C1236.96 1450.45 1236.96 1450.45 1240.41 1443.97C1244.23 1436.79 1248.07 1429.62 1251.91 1422.44C1253.07 1420.28 1254.23 1418.12 1255.42 1415.88C1270.61 1388 1270.61 1388 1285.82 1383.95Z" fill="#FCFCFD"/>
<path d="M1188.9 1551.79C1197.59 1553.6 1204.94 1556.81 1212.92 1560.68C1261.97 1583.3 1317.52 1584.88 1368.38 1567.35C1375.76 1564.98 1381.34 1564.5 1389 1564.95C1389.42 1566.27 1389.42 1566.27 1391.63 1572.85C1383.1 1588.54 1368.99 1601.81 1356.75 1614.66C1355.04 1616.45 1353.3 1618.26 1351.53 1620.13C1346.48 1625.45 1341.42 1630.74 1336.34 1636.04C1334.92 1637.51 1333.5 1638.98 1332.05 1640.51C1316.41 1656.76 1316.41 1656.76 1310.01 1662.36C1308.28 1662.36 1306.54 1662.36 1304.75 1662.36C1303.88 1664.97 1303.01 1667.58 1302.12 1670.26C1291.58 1668.89 1286.5 1666.47 1279.1 1658.89C1277.31 1657.1 1275.55 1655.31 1273.71 1653.46C1272.81 1652.52 1272.81 1652.52 1268.2 1647.73C1266.41 1645.91 1264.62 1644.07 1262.78 1642.2C1252.25 1631.45 1242.25 1620.37 1232.4 1609C1227.79 1603.76 1222.92 1598.89 1217.87 1594.07C1207.2 1583.54 1196.93 1572.4 1188.9 1559.68C1188.9 1557.08 1188.9 1554.47 1188.9 1551.79Z" fill="#FBFBFB"/>
</g>
<defs>
<clipPath id="clip0_448_108">
<rect width="1450.69" height="1190.04" fill="white" transform="translate(388.526 743.512)"/>
</clipPath>
</defs>
</svg>
