<?xml version="1.0" encoding="UTF-8"?>
<svg id="Layer_1" xmlns="http://www.w3.org/2000/svg" version="1.1" viewBox="0 0 24 24">
  <!-- Generator: Adobe Illustrator 29.8.7, SVG Export Plug-In . SVG Version: 2.1.1 Build 1)  -->
  <defs>
    <style>
      .st0 {
        fill: none;
        stroke: #714bfb;
        stroke-linecap: round;
        stroke-linejoin: round;
        stroke-width: 1px;
      }
    </style>
  </defs>
  <path class="st0" d="M11,6c3,0,6-.9,8.4-2.8.4-.3,1.1-.2,1.4.2.1.2.2.4.2.6v12c0,.6-.4,1-1,1s-.4,0-.6-.2c-2.4-1.9-5.4-2.9-8.4-2.8h-6c-1.1,0-2-.9-2-2v-4c0-1.1.9-2,2-2h6Z"/>
  <path class="st0" d="M6,14c0,2.6.8,5.1,2.4,7.2.7.9,1.9,1.1,2.8.4.9-.7,1.1-1.9.4-2.8-1-1.4-1.6-3.1-1.6-4.8"/>
  <path class="st0" d="M8,6v8"/>
</svg>