<?xml version="1.0" encoding="UTF-8"?>
<svg id="Layer_1" xmlns="http://www.w3.org/2000/svg" xmlns:xlink="http://www.w3.org/1999/xlink" version="1.1" viewBox="0 0 100 100">
  <defs>
    <style>
      .st0 {
        fill: none;
      }

      .st1 {
        fill: #00ff7c;
      }

      .st2 {
        fill: #1e1e1e;
      }

      .st3 {
        clip-path: url(#clippath-dark);
      }
    </style>
    <clipPath id="clippath-dark">
      <path class="st0" d="M50,100c27.61,0,50-22.39,50-50C100,22.39,77.61,0,50,0S0,22.39,0,50c0,27.61,22.39,50,50,50Z"/>
    </clipPath>
  </defs>
  <g class="st3">
    <g>
      <g>
        <path class="st2" d="M35.85,86.79c5.67-8.18,12.96-18.03,16.93-23.34,1.81-2.42,4.66-3.85,7.68-3.85h11.47c3.15,0,6.13-1.44,8.09-3.91l9.82-12.38c1.71-2.15.37-5.35-2.36-5.64l-16.18-1.74c-3.41-.37-6.59-1.89-9.02-4.32l-5.78-5.78c-1.54-1.54-3.64-2.41-5.82-2.41h-17.28c-2.66,0-5.16,1.3-6.68,3.48L3.26,60.59"/>
        <path fill="#fff" d="M37.33,87.82l-2.95-2.05c5.76-8.3,13.1-18.22,16.97-23.39,2.14-2.86,5.55-4.57,9.12-4.57h11.47c2.62,0,5.05-1.18,6.68-3.23l9.82-12.38c.56-.71.35-1.43.24-1.71-.12-.28-.48-.93-1.38-1.03l-16.18-1.74c-3.8-.41-7.39-2.13-10.1-4.83l-5.78-5.78c-1.2-1.2-2.86-1.89-4.55-1.89h-17.28c-2.07,0-4.02,1.01-5.2,2.71L4.74,61.62l-2.95-2.05L25.26,25.88c1.85-2.66,4.9-4.25,8.15-4.25h17.28c2.64,0,5.23,1.07,7.09,2.94l5.78,5.78c2.13,2.13,4.95,3.48,7.94,3.8l16.18,1.74c1.94.21,3.56,1.41,4.31,3.21.76,1.81.48,3.8-.73,5.33l-9.82,12.38c-2.31,2.92-5.77,4.59-9.5,4.59h-11.47c-2.45,0-4.78,1.17-6.24,3.13-3.85,5.16-11.17,15.03-16.9,23.29Z"/>
      </g>
      <g>
        <path fill="#fff" d="M48.14,58.51V23.43s-14.73,0-14.73,0c-2.64,0-5.11,1.28-6.63,3.42v17.68c0,2.52,1.18,4.89,3.19,6.4l13.29,10.01c2.01,1.51,4.88.08,4.88-2.43h0Z"/>
        <path fill="#fff" d="M45.09,63.36c-1.03,0-2.05-.33-2.91-.98l-13.29-10.01c-2.45-1.85-3.91-4.78-3.91-7.84v-18.25l.33-.47c1.86-2.62,4.88-4.18,8.09-4.18h16.53v36.88c0,1.85-1.02,3.51-2.68,4.34-.69.34-1.43.51-2.17.51ZM28.58,27.47v17.07c0,1.94.93,3.8,2.48,4.97l13.29,10.01c.56.42,1.1.22,1.31.12.2-.1.65-.39.69-1.02v-.1s0-33.28,0-33.28h-12.93c-1.87,0-3.64.83-4.83,2.24Z"/>
      </g>
      <g>
        <path fill="#fff" d="M87.49,37.67l-6.13-.66,1.07,3.85c.16.57.49,1.07.95,1.44l4.44,3.57,2.03-2.55c1.71-2.15.37-5.35-2.36-5.64Z"/>
        <path fill="#fff" d="M88.1,48.4l-5.85-4.7c-.76-.61-1.3-1.43-1.56-2.36l-1.78-6.4,8.77.94c1.94.21,3.56,1.41,4.31,3.21.76,1.81.48,3.8-.73,5.33l-3.15,3.97ZM83.79,39.08l.36,1.29c.06.21.18.39.35.53l3.03,2.43.91-1.14c.56-.71.35-1.43.23-1.71-.12-.28-.48-.93-1.38-1.03h0l-3.5-.38Z"/>
      </g>
      <g>
        <path class="st1" d="M-2.28,60.34l-6.81,9.82,41.17,28.56,6.81-9.82L-2.28,60.34Z"/>
        <path fill="#fff" d="M32.59,101.53l-44.5-30.87,9.11-13.14,44.5,30.87-9.11,13.14ZM-6.27,69.65l37.85,26.26,4.5-6.49L-1.77,63.15l-4.5,6.49Z"/>
      </g>
      <path fill="#fff" d="M50,100C22.43,100,0,77.57,0,50S22.43,0,50,0s50,22.43,50,50-22.43,50-50,50ZM50,4.17C24.73,4.17,4.17,24.73,4.17,50s20.56,45.83,45.83,45.83,45.83-20.56,45.83-45.83S75.27,4.17,50,4.17Z"/>
    </g>
  </g>
</svg>