<?xml version="1.0" encoding="utf-8"?>
<svg xmlns="http://www.w3.org/2000/svg" width="20" height="20" viewBox="0 0 20 20" fill="none">
<g clip-path="url(#clip0_11123_2623)">
<rect width="20" height="20" rx="10" fill="#C4EFFF"/>
<rect width="20" height="20" rx="10" fill="#00D2FF" fill-opacity="0.6"/>
<path d="M0.666817 26.6977C1.1064 25.4396 2.72968 22.5838 5.70611 21.226C5.10187 19.5054 4.2215 14.6217 5.53394 8.85122C5.03674 8.25399 4.16954 6.60225 4.67829 4.77317C5.29115 4.54206 6.84625 4.44252 8.16378 5.89324C8.52294 5.6663 9.19912 5.37302 10.0859 5.20854C9.93588 4.50987 9.58233 3.22134 10.4463 3.34198C10.9943 3.41849 11.9971 4.36139 12.7034 5.18238C13.0009 5.23078 13.3064 5.29827 13.618 5.38808C16.8145 6.30945 18.3061 8.10116 17.7387 11.0305C18.2238 12.4705 18.2758 15.349 14.6031 15.3429C14.2213 16.1869 13.7388 18.3574 14.8627 20.2878C16.0016 20.4468 18.4688 21.678 19.2255 25.3306L14.9341 28.8483L0.666817 26.6977Z" fill="#08072C"/>
</g>
<defs>
<clipPath id="clip0_11123_2623">
<rect width="20" height="20" rx="10" fill="white"/>
</clipPath>
</defs>
</svg>