<?xml version="1.0" encoding="utf-8"?>
<svg xmlns="http://www.w3.org/2000/svg" width="20" height="20" viewBox="0 0 20 20" fill="none">
<g clip-path="url(#clip0_11123_2627)">
<rect width="20" height="20" rx="10" fill="#C4EFFF"/>
<rect width="20" height="20" rx="10" fill="#00D2FF" fill-opacity="0.6"/>
<path d="M12.3934 11.9451C15.8298 15.2094 17.3484 21.7899 17.6782 24.6721L11.593 28.4457L0.727806 24.0439C3.00359 23.7916 4.40359 17.4794 4.66785 16.553C4.87926 15.812 6.41369 14.6469 7.15447 14.157C4.99746 13.6419 1.86067 11.6451 1.82728 10.8843C1.79389 10.1235 2.97782 9.30924 3.40092 8.52838C3.7394 7.9037 3.47962 6.8479 3.30742 6.39808C6.18519 5.96687 6.2305 3.52556 6.687 3.50552C7.14349 3.48549 6.56822 4.27301 7.34908 4.69611C8.12994 5.11921 9.2404 2.63117 10.4711 2.88207C11.4556 3.08279 11.9447 4.03704 12.0662 4.48908C14.9373 3.9057 15.0212 -1.12908 15.5459 3.87899C15.9657 7.88544 13.6192 10.9258 12.3934 11.9451Z" fill="#08072C"/>
</g>
<defs>
<clipPath id="clip0_11123_2627">
<rect width="20" height="20" rx="10" fill="white"/>
</clipPath>
</defs>
</svg>