<svg width="862" height="908" viewBox="0 0 862 908" fill="none" xmlns="http://www.w3.org/2000/svg">
<path d="M835 455C835 678.675 653.675 860 430 860C206.325 860 25 678.675 25 455C25 231.325 206.325 50 430 50C653.675 50 835 231.325 835 455Z" fill="#AEADAD"/>
<g clip-path="url(#clip0_261_20)">
<path d="M496.992 218.762C497.932 218.752 498.862 218.742 499.832 218.732C575.052 218.112 575.052 218.112 600.832 242.592C605.752 248.062 610.082 254.532 610.252 262.062C610.172 263.362 610.082 264.662 610.002 266.002C606.402 268.402 604.152 268.582 600.002 268.002C593.892 266.472 588.072 264.642 582.502 261.692C574.372 257.952 564.962 260.832 556.622 262.812C556.302 262.892 556.302 262.892 554.642 263.272C549.852 264.512 546.092 266.282 542.002 269.002C541.002 272.002 541.002 272.002 542.592 275.232C543.362 276.552 544.152 277.872 544.942 279.192C545.772 280.632 546.612 282.082 547.442 283.532C547.872 284.272 548.302 285.012 548.742 285.782C560.902 307.212 567.722 330.892 561.442 355.562C559.402 362.482 556.622 369.052 553.582 375.572C552.292 378.362 551.102 381.142 550.002 384.002C550.532 384.582 551.072 385.162 551.612 385.762C573.882 410.272 590.632 437.432 602.502 468.372C602.882 469.372 603.272 470.372 603.672 471.392C605.762 476.992 607.392 482.472 608.612 488.332C612.482 506.132 612.482 506.132 617.222 509.652C622.462 511.982 627.912 512.752 633.562 513.532C639.242 514.632 644.542 518.262 648.382 522.542C651.142 525.032 654.872 525.172 658.442 525.812C668.882 527.912 680.232 531.422 686.762 540.442C687.012 540.862 687.012 540.862 688.252 543.002C688.752 543.842 689.252 544.692 689.762 545.562C697.942 561.702 689.602 585.812 684.542 601.722C679.562 616.372 671.942 628.172 661.002 639.002C660.292 639.732 659.592 640.452 658.862 641.212C637.512 661.862 602.702 668.132 574.152 668.172C573.252 668.172 572.362 668.172 571.432 668.182C569.552 668.182 567.672 668.182 565.792 668.182C562.942 668.192 560.082 668.202 557.232 668.222C555.392 668.232 553.552 668.232 551.712 668.232C550.872 668.242 550.032 668.242 549.162 668.252C544.212 668.232 539.752 667.672 534.942 666.452C530.132 665.332 526.652 665.832 522.312 668.062C509.782 674.012 496.862 678.252 483.442 681.692C482.912 681.822 482.912 681.822 480.282 682.512C459.072 687.742 438.012 689.682 416.202 689.572C412.262 689.562 408.342 689.602 404.402 689.632C363.882 689.752 322.702 680.482 287.002 661.002C285.972 660.452 284.942 659.902 283.882 659.332C276.552 655.242 269.862 650.392 263.152 645.352C261.142 643.852 259.092 642.392 257.002 641.002C257.002 640.342 257.002 639.682 257.002 639.002C256.402 638.732 255.812 638.462 255.202 638.182C253.012 637.012 251.572 635.832 249.832 634.092C249.542 633.812 249.542 633.812 248.072 632.352C247.472 631.742 246.872 631.132 246.252 630.502C245.622 629.862 245.002 629.232 244.352 628.582C228.962 612.832 217.152 593.952 209.062 573.502C208.772 572.762 208.472 572.022 208.172 571.252C199.742 549.102 205.332 522.122 211.002 500.002C211.212 499.152 211.422 498.312 211.642 497.442C214.852 485.012 219.502 473.012 224.002 461.002C223.372 460.702 222.752 460.402 222.102 460.092C214.902 456.352 212.052 448.262 209.622 441.002C209.372 440.252 209.122 439.502 208.862 438.732C207.222 433.512 206.422 428.452 206.002 423.002C205.952 422.472 205.952 422.472 205.722 419.772C205.562 417.722 205.422 415.672 205.272 413.622C205.102 411.372 204.912 409.122 204.702 406.872C203.922 398.152 204.122 389.722 204.722 381.012C204.882 378.782 205.012 376.542 205.152 374.312C205.852 363.462 205.852 363.462 207.002 360.002C207.342 357.582 207.652 355.172 207.942 352.752C208.112 351.302 208.292 349.852 208.472 348.402C208.802 345.632 209.132 342.872 209.472 340.102C210.542 331.602 212.072 323.342 214.002 315.002C213.202 315.362 212.402 315.722 211.582 316.092C200.912 320.602 192.072 321.412 181.002 318.002C181.002 317.342 181.002 316.682 181.002 316.002C180.422 315.772 179.842 315.542 179.252 315.312C174.602 312.602 171.892 307.922 170.002 303.002C168.232 293.022 174.272 283.642 179.632 275.522C180.082 275.022 180.532 274.512 181.002 274.002C181.662 274.002 182.322 274.002 183.002 274.002C183.262 273.422 183.532 272.832 183.812 272.232C189.072 262.362 199.322 255.082 208.192 248.622C208.772 248.192 209.352 247.772 209.952 247.322C213.532 244.772 216.802 243.242 221.002 242.002C222.772 241.222 224.542 240.432 226.312 239.622C251.452 229.132 281.372 229.352 306.752 239.002C312.662 241.642 318.292 244.832 323.942 248.002C324.852 248.512 325.762 249.022 326.702 249.552C331.482 252.292 335.182 254.982 339.002 259.002C340.392 260.092 341.802 261.172 343.212 262.232C348.402 266.202 352.972 270.672 357.562 275.312C358.362 276.102 359.162 276.892 359.982 277.712C365.422 283.162 370.292 288.902 375.002 295.002C375.732 295.922 376.462 296.842 377.222 297.792C382.512 304.682 387.302 311.862 392.062 319.122C392.402 319.642 392.402 319.642 394.122 322.252C394.442 322.742 394.442 322.742 396.032 325.192C396.322 325.632 396.322 325.632 397.762 327.852C399.002 330.002 399.002 330.002 399.002 332.002C400.162 331.992 401.322 331.992 402.512 331.982C406.822 331.962 411.132 331.952 415.442 331.942C417.302 331.942 419.172 331.932 421.032 331.922C423.712 331.912 426.402 331.912 429.082 331.902C429.912 331.902 430.742 331.892 431.602 331.882C432.382 331.882 433.162 331.882 433.962 331.882C434.652 331.882 435.332 331.882 436.042 331.882C438.132 332.012 439.992 332.432 442.002 333.002C441.882 332.402 441.762 331.812 441.632 331.202C438.802 316.762 437.562 302.682 437.502 288.002C437.492 287.242 437.482 286.472 437.472 285.692C437.252 265.332 441.242 244.742 455.002 229.002C459.532 224.562 463.152 222.982 469.312 221.752C470.022 221.592 470.732 221.432 471.462 221.262C479.922 219.422 488.342 218.832 496.992 218.762Z" fill="#FEFEFE"/>
<path d="M622 510C623.35 510.36 624.69 510.71 626.04 511.07C639.74 514.82 648.58 520.65 656 533C659.89 540.06 661.25 546.98 660 555C658.77 558.37 657.11 561.11 655 564C654.78 564.31 654.78 564.31 653.68 565.9C646.54 575.22 634.72 579.22 624 583C623.26 583.27 622.53 583.55 621.77 583.83C614.75 586.23 608.18 586.43 600.81 586.31C599.62 586.3 598.44 586.29 597.21 586.28C572.04 585.9 572.04 585.9 565.34 579.39C565.11 579.11 565.11 579.11 563.94 577.69C563.43 577.08 562.92 576.47 562.39 575.84C561 574 561 574 559.12 570.75C556.31 567.1 553.36 565.99 549 565C546.75 564.74 544.5 564.49 542.25 564.25C536.5 563.48 536.5 563.48 534.31 561.39C533.25 559.5 533.25 559.5 532 556C531.67 555.34 531.34 554.68 531 554C530.14 544.8 531.49 535.68 535.88 527.5C554.49 505.6 596.45 502.38 622 510Z" fill="#293037"/>
<path d="M297.5 298.438C312.84 313.028 322.64 334.778 328 354.998C328 355.658 328 356.318 328 356.998C327.03 357.508 326.06 358.018 325.06 358.548C300.33 371.848 279.3 391.218 259.85 411.278C259.24 411.888 258.64 412.508 258.02 413.138C257.48 413.698 256.95 414.248 256.4 414.818C255 415.998 255 415.998 253 415.998C243.16 384.448 238.16 347.618 245.2 314.838C246 310.998 246 310.998 246.3 307.228C246.71 303.558 247.11 301.188 249 297.998C253.7 294.418 259.41 292.688 265 290.998C265.9 290.708 266.81 290.408 267.74 290.108C278.99 287.008 288.78 291.288 297.5 298.438Z" fill="#293037"/>
<path d="M452.406 425.84C463.226 431.34 468.396 441.22 472.996 452C474.676 457.34 475.666 462.42 475.996 468C476.036 468.63 476.076 469.26 476.116 469.9C476.886 483.89 475.266 497.55 466.676 509.16C461.996 514.29 456.966 518.04 449.876 518.38C443.436 518.27 438.836 515.51 434.086 511.31C421.316 497.86 418.446 479.66 418.726 461.88C419.166 450.67 422.926 439.33 430.796 431.13C437.276 425.36 443.826 422.85 452.406 425.84Z" fill="#293037"/>
<path d="M419 574C422 575 422 575 423.76 578.43C424.41 579.91 425.05 581.39 425.69 582.88C443.84 622.94 490.93 644.85 528 664C528 664.33 528 664.66 528 665C501.2 669.97 470.75 671.74 447.19 655.75C429.79 643.31 423.78 623.92 420.23 603.62C416.98 583.82 416.98 583.82 418 575C418.33 574.67 418.66 574.34 419 574Z" fill="#2B3138"/>
<path d="M522 279C531.9 285.41 536.08 298.76 538.71 309.68C542.81 328.83 541.91 357.52 532 375C529.24 372.32 526.7 369.64 524.31 366.62C518.89 360.2 511.31 355.97 504 352C503.16 326.96 507.21 302.81 520 281C520.66 280.34 521.32 279.68 522 279Z" fill="#2A3138"/>
<path d="M565 425C574.82 429.81 579.77 440.22 583.33 450.05C588.38 464.81 591.81 483.22 585.2 497.99C583.49 500.86 582 502.5 579 504C576.19 504.69 576.19 504.69 573 504C560.37 496.08 555.8 480.55 552.18 466.91C549.83 455.11 548.42 439.6 555 429C557.92 424.92 560.04 424.21 565 425Z" fill="#2B3138"/>
</g>
<defs>
<clipPath id="clip0_261_20">
<rect width="522" height="470" fill="white" transform="translate(170 219)"/>
</clipPath>
</defs>
</svg>
