<?xml version="1.0" encoding="utf-8"?>
<svg xmlns="http://www.w3.org/2000/svg" width="20" height="20" viewBox="0 0 20 20" fill="none">
<g clip-path="url(#clip0_11123_2619)">
<rect width="20" height="20" rx="10" fill="#C4EFFF"/>
<rect width="20" height="20" rx="10" fill="#00D2FF" fill-opacity="0.6"/>
<path d="M16.2436 12.2071C15.647 12.7761 14.1928 13.1149 15.4362 13.7975C14.437 13.3073 14.1331 13.975 14.3095 14.0973C17.3987 16.2394 17.9395 23.8068 17.6806 24.8892L10.7049 27.8826L3.096 25.5553C1.76351 22.7246 3.78972 14.7861 5.67817 14.1261C5.95662 14.0288 6.05648 13.583 6.09161 13.4128C5.59875 13.737 4.79464 13.6775 4.45419 13.6073C6.13868 12.4109 4.94542 13.5489 3.48807 11.0652C2.3222 9.07815 3.36453 6.76248 4.03143 5.85303C3.73833 5.62215 3.75373 4.44688 3.79807 3.88811C3.99129 4.39653 4.73346 4.77334 5.08039 4.89819C4.74062 4.27433 4.79621 3.43747 4.86648 3.09701C5.49936 3.95174 6.21635 4.20977 6.49573 4.23194C9.58389 2.27108 12.6893 3.71778 13.856 4.68623C14.8384 4.56955 15.1741 3.20128 15.2324 3.6925C15.2791 4.08548 15.1243 4.6463 15.0411 4.87759C15.565 4.81536 16.3953 4.16325 16.745 3.84497C16.885 5.02391 15.9505 5.54449 15.4658 5.65741C16.1363 5.71062 16.7276 5.5629 16.9395 5.48239C16.7241 5.90649 16.2596 6.28269 16.0542 6.41778C18.186 8.98749 16.8403 11.6381 16.2436 12.2071Z" fill="#08072C"/>
</g>
<defs>
<clipPath id="clip0_11123_2619">
<rect width="20" height="20" rx="10" fill="white"/>
</clipPath>
</defs>
</svg>