<svg id="Layer_1" xmlns="http://www.w3.org/2000/svg" version="1.1" viewBox="0 0 440.4 73.1"><defs><pattern id="SVGID_1_" data-name="SVGID 1" x="0" y="0" width="6" height="6" patternTransform="rotate(-45 2896.233 3482.341)" patternUnits="userSpaceOnUse" viewBox="0 0 6 6"><path class="st0" d="M0 0h6v6H0z"/><path class="st0" d="M0 0h6v6H0z"/><path class="st0" d="M0 0h6v6H0z"/><path fill="#4e55fd" d="M0-1h2v8H0z"/><path class="st0" d="M0 0h6v6H0z"/></pattern><pattern id="SVGID_2_" data-name="SVGID 2" x="0" y="0" width="6" height="6" patternTransform="rotate(-45 2896.233 3482.341)" patternUnits="userSpaceOnUse" viewBox="0 0 6 6"><path class="st0" d="M0 0h6v6H0z"/><path class="st0" d="M0 0h6v6H0z"/><path class="st0" d="M0 0h6v6H0z"/><path fill="red" d="M0-1h2v8H0z"/><path class="st0" d="M0 0h6v6H0z"/></pattern><style>.st0{fill:none}.st7{fill:#fff}.st9{display:none}</style></defs><g id="Layer_11" data-name="Layer_1"><g id="BG" class="st9"><path class="st9" d="M-105.9-203.6h640v480h-640z"/></g><g id="Art"><path class="st7" d="M223.2 17.9h1.2v36.6h-1.2z"/><g class="st9"><path class="st7" d="M198.8 34.3v-2.5h-2.9v-3.5h-2.5v3.5h-2.3v2.5h2.3v7.1c0 2.1 1.7 3.8 3.8 3.8h1.6v-2.5h-1.6c-.7 0-1.3-.6-1.3-1.3v-7.1h2.9zm-14.3-2.7c2.6 0 4.8 2.1 4.8 4.8v4c0 2.6-2.1 4.8-4.8 4.8h-.9c-2.6 0-4.8-2.2-4.8-4.8v-4c0-2.6 2.2-4.8 4.8-4.8h.9zm-3.2 4.8v4c0 1.3 1.1 2.3 2.3 2.3h.9c1.3 0 2.3-1 2.3-2.3v-4c0-1.3-1-2.3-2.3-2.3h-.9c-1.3 0-2.3 1-2.3 2.3zm-5.2 0v4c0 2.6-2.1 4.8-4.8 4.8h-.3c-1.1 0-2.1-.4-2.9-1v5.3h-2.5V31.9h2.5v.8c.8-.7 1.8-1 2.9-1h.3c2.6 0 4.8 2.1 4.8 4.8zm-2.4 0c0-1.3-1-2.3-2.3-2.3h-.9c-1.3 0-2.3 1-2.3 2.3v4c0 1.3 1.1 2.3 2.3 2.3h.9c1.3 0 2.3-1 2.3-2.3v-4zm-19.6 4.5c.2 1 1.2 1.8 2.3 1.8h1.7c1.3 0 2.3-1 2.3-2.3s-.9-2.3-2.2-2.8l-2.3-.8c-2.1-.8-3.9-2.2-3.9-4.8s2.1-4.8 4.8-4.8h1.2c2.2 0 4.1 1.5 4.6 3.6l-2.4.7c-.2-1-1.1-1.8-2.2-1.8h-1.2c-1.3 0-2.3 1-2.3 2.3s.4 1.8 2.3 2.5l2.3.9c2.3.9 3.7 2.7 3.7 5.1s-2.2 4.8-4.8 4.8h-1.7c-2.2 0-4.1-1.5-4.6-3.6l2.4-.7zm-4.7-6.6v-2.5h-2.9v-3.5H144v3.5h-2.3v2.5h2.3v7.1c0 2.1 1.7 3.8 3.8 3.8h1.6v-2.5h-1.6c-.7 0-1.3-.6-1.3-1.3v-7.1h2.9zm-9.8 2.1v8.5h-2.5v-8.5c0-1.3-1-2.3-2.3-2.3h-.9c-1.3 0-2.3 1-2.3 2.3v8.5h-2.5V27.3h2.5v5.3c.8-.7 1.8-1 2.9-1h.3c2.6 0 4.8 2.1 4.8 4.8zm-13.7-4.6v13c0 2.6-2.1 4.8-4.8 4.8h-1c-2.2 0-4.1-1.5-4.6-3.6l2.4-.7c.2 1 1.2 1.8 2.3 1.8h1c1.3 0 2.3-1 2.3-2.3v-1.5c-.8.7-1.8 1-2.9 1h-.3c-2.6 0-4.8-2.1-4.8-4.8v-3.2c0-2.6 2.2-4.8 4.8-4.8h.3c1.1 0 2.1.4 2.9 1v-.8h2.5-.1zm-2.4 7.8v-3.2c0-1.3-1-2.3-2.3-2.3h-.9c-1.3 0-2.3 1-2.3 2.3v3.2c0 1.3 1.1 2.3 2.3 2.3h.9c1.3 0 2.3-1.1 2.3-2.3zm-18.8-7.8v8.5c0 1.3 1 2.3 2.3 2.3h.9c1.3 0 2.3-1 2.3-2.3v-8.5h2.5v8.5c0 2.6-2.1 4.8-4.8 4.8h-.9c-2.6 0-4.8-2.1-4.8-4.8v-8.5h2.5zm-10.1-.2c2.6 0 4.8 2.1 4.8 4.8v4c0 2.6-2.1 4.8-4.8 4.8h-.9c-2.6 0-4.8-2.2-4.8-4.8v-4c0-2.6 2.2-4.8 4.8-4.8h.9zm-3.2 4.8v4c0 1.3 1.1 2.3 2.3 2.3h.9c1.3 0 2.3-1 2.3-2.3v-4c0-1.3-1-2.3-2.3-2.3h-.9c-1.3 0-2.3 1-2.3 2.3zm-5.4 0v8.5h-2.5v-8.5c0-1.3-1-2.3-2.3-2.3h-.9c-1.3 0-2.3 1-2.3 2.3v8.5h-2.5V27.3H78v5.3c.8-.7 1.8-1 2.9-1h.3c2.6 0 4.8 2.1 4.8 4.8zm-13-9v2.5h-4.9V45h-2.5V29.9h-4.9v-2.5h12.4z"/><circle class="st7" cx="37.1" cy="51.1" r="4.9"/><path class="st7" d="M41.6 26.4H2.7v2.4h13.4v26.9h2.4V28.8h2.4v26.9h2.5V28.8h2.4v26.9h2.4V28.8h13.4v-2.4zM2.7 21.5h39v2.4h-39zm0-4.8h39v2.4h-39z"/></g></g><g id="Guides__x28_DELETE_THIS_LAYER_x29_" class="st9"><path d="M-21.7-7.5v87.7h464.2V-7.5H-21.7zM2.7 16.9h196.2v39H2.7v-39zm415.4 39H248.8v-39h169.3v39z" style="isolation:isolate" fill="url(#SVGID_1_)" opacity=".6"/><path d="M-46.1-31.9v136.5h513V-31.9h-513zM198.8 80.2H-21.7V-7.5h464.2v87.7H198.8z" style="isolation:isolate" fill="url(#SVGID_2_)" opacity=".5"/><path d="M248.8 16.9h169.3v39H248.8z"/><text transform="translate(281.4 40.9)" style="isolation:isolate" font-family="Plain-Regular,Plain" font-size="12" fill="red"><tspan x="0" y="0">Fit logo in this area</tspan></text></g><path d="M249.3 30.3h5.7c4.2.2 7 2.7 7 7.1s-1.1 5-2.9 6c-1.6 1.1-3.5 1.2-6.2 1.2h-3.5V30.3h-.1zm3.3 11.6h1.1c.8 0 1.6 0 2.1-.3 1.7-.5 2.6-1.8 2.6-4.1s-.9-3.6-2.6-4.1c-.5-.2-1.2-.3-1.9-.3h-1.3v8.8zm25.4-4.4c0 4.6-2.9 7.4-7.3 7.4s-7.2-2.8-7.2-7.4 2.9-7.4 7.3-7.4 7.3 2.9 7.3 7.4zm-3.5 0c0-2.9-1.4-4.7-3.8-4.7s-3.8 1.8-3.8 4.7 1.4 4.6 3.8 4.6 3.8-1.8 3.8-4.6zm19.1 2.7c-.9 3-3.4 4.7-6.9 4.7s-7.2-2.8-7.2-7.4 2.9-7.4 7.3-7.4 6 1.8 6.9 4.9h-3.6c-.6-1.4-1.7-2.2-3.3-2.2-2.4 0-3.8 1.8-3.8 4.7s1.4 4.6 3.8 4.6 2.5-.7 3.2-1.9h3.7-.1zm4.5.1c.2 1.3 1 2 2.5 2s2.2-.7 2.2-1.7-.7-1.2-2.3-1.7l-1-.3c-3.2-.9-4.4-2.1-4.4-4.3s2.1-4.3 5.4-4.3 5.2 1.5 5.3 4.3h-3.3c-.2-1.1-.9-1.7-2.2-1.7s-1.9.6-1.9 1.4.7 1.3 1.8 1.6l1.1.3c3.2.9 4.8 1.9 4.8 4.4s-2.3 4.5-5.7 4.5-5.6-1.7-5.7-4.6h3.4z" fill="#abc7f9" id="Layer_4"/></g><path class="st7" d="M155 35.7c-.9-.5-2-.9-3.5-1.3-1.2-.3-2.1-.6-2.7-.8-.6-.2-1-.5-1.2-.8s-.3-.7-.3-1.1c0-.7.3-1.3.8-1.8.6-.5 1.4-.7 2.3-.7s1.5.1 2 .4 1 .7 1.3 1.2.5 1.1.6 1.7v.3h2.8v-.5c-.2-1.1-.5-2-1.1-2.9s-1.3-1.5-2.2-2-2.1-.7-3.3-.7-2.3.2-3.1.6c-.9.4-1.6 1-2.1 1.8s-.7 1.7-.7 2.7.2 1.7.6 2.3c.4.6 1 1.1 1.8 1.6.8.4 1.9.8 3.2 1.1s2.4.7 3 1 1.1.7 1.3 1 .3.8.3 1.3-.1 1-.4 1.3c-.3.3-.7.6-1.2.8s-1.2.3-1.9.3-1.6 0-2.2-.4c-.6-.3-1.1-.7-1.4-1.2-.4-.6-.6-1.2-.7-2v-.3h-2.7v.5c.1 1.2.5 2.3 1.1 3.2s1.4 1.6 2.4 2.1 2.2.8 3.6.8 2.3-.2 3.2-.6c.9-.4 1.7-1 2.2-1.8s.8-1.7.8-2.7-.2-1.6-.6-2.3c-.4-.7-1-1.3-1.9-1.8v-.3zM46.4 29.4h4.9v15.3h2.6V29.4h5.2v-2.6H46.4v2.6zm53.6 9.7c0 1.8-1.5 3.3-3.3 3.3s-3.3-1.5-3.3-3.3v-7.8h-2.6v7.8c0 3.2 2.6 5.9 5.9 5.9s5.9-2.6 5.9-5.9v-7.8H100v7.8zm-18.3-8c-3.8 0-6.9 3.1-6.9 6.9s3.1 6.9 6.9 6.9 6.9-3.1 6.9-6.9-3.1-6.9-6.9-6.9zm0 11.3c-2.4 0-4.3-1.9-4.3-4.3s1.9-4.3 4.3-4.3 4.3 1.9 4.3 4.3-1.9 4.3-4.3 4.3zm100.4-11.3c-3.8 0-6.9 3.1-6.9 6.9s3.1 6.9 6.9 6.9 6.9-3.1 6.9-6.9-3.1-6.9-6.9-6.9zm0 11.3c-2.4 0-4.3-1.9-4.3-4.3s1.9-4.3 4.3-4.3 4.3 1.9 4.3 4.3-1.9 4.3-4.3 4.3zm13.4-15.6h-2.6v4.5h-3.3v2.6h3.3v7c0 2.1 1.7 3.8 3.8 3.8h2.2v-2.6h-2.2c-.7 0-1.2-.5-1.2-1.2v-7h3.4v-2.6h-3.4v-4.5zm-69.6 4.3c-1.5 0-2.7.6-3.6 1.5h-.4l.4-1.8v-3.9h-2.6v17.9h2.6v-7.7c0-1.8 1.5-3.3 3.3-3.3s3.3 1.5 3.3 3.3v7.7h2.6v-7.7c0-3.3-2.4-5.9-5.6-5.9zm41 0c-1.9 0-3.5.7-4.7 2h-.4l.4-1.7h-2.6v20.4h2.6v-6.9l-.4-1.8h.4c1.1 1.2 2.7 2 4.7 2 3.6 0 6.6-3.1 6.6-6.9s-3.1-6.9-6.6-6.9v-.2zm-.3 11.3c-2.4 0-4.3-1.9-4.3-4.3s1.9-4.3 4.3-4.3 4.3 1.9 4.3 4.3-1.9 4.3-4.3 4.3zM67.2 31.1c-1.5 0-2.7.6-3.6 1.5h-.4l.4-1.8v-3.9H61v17.9h2.6v-7.7c0-1.8 1.5-3.3 3.3-3.3s3.3 1.5 3.3 3.3v7.7h2.6v-7.7c0-3.3-2.4-5.9-5.6-5.9zM2 21.2h30.5v5.7H2zm18.9 7.5h11.6v5.7H20.9zm-11.5 0H2v5.7h7.4c2.8 0 5 2.3 5 5v12.3h5.7V39.4c0-5.9-4.8-10.7-10.7-10.7zm17.3 13.9c-2.6 0-4.7 2.1-4.7 4.7s2.1 4.7 4.7 4.7 4.7-2.1 4.7-4.7-2.1-4.7-4.7-4.7zm90.9-10.1c0-.8-.7-1.4-1.4-1.4s-1.4.7-1.4 1.4v.3c-1-1.1-2.5-1.7-4.1-1.7-3.1 0-5.7 2.5-5.7 5.7s.6 2.9 1.7 3.9l-.8.8c-.9.9-1.1 2.2-.7 3.3s1.6 1.9 2.8 1.9h5.6c.7 0 1.2.5 1.2 1.2s-.5 1.2-1.2 1.2h-9.1v2.6h9.1c2.1 0 3.8-1.7 3.8-3.8s-1.7-3.8-3.8-3.8h-6.4v-.4l1.7-1.8c.5 0 1.1.2 1.7.2 3.1 0 5.7-2.3 5.7-5.4s-.3-2.1-.8-2.9h.6c.8 0 1.4-.7 1.4-1.4h.1zm-6.9 7.4c-1.7 0-3.1-1.4-3.1-3.1s1.4-3.1 3.1-3.1 3.1 1.4 3.1 3.1-1.4 3.1-3.1 3.1zm27.7-13.1h-2.6v4.5h-3.3v2.6h3.3v7c0 2.1 1.7 3.8 3.8 3.8h2.2v-2.6h-2.2c-.7 0-1.2-.5-1.2-1.2v-7h3.4v-2.6h-3.4v-4.5z" id="Layer_2"/></svg>