<?xml version="1.0" encoding="UTF-8"?>
<svg id="Layer_1" xmlns="http://www.w3.org/2000/svg" version="1.1" viewBox="0 0 317 73.1">
  <!-- Generator: Adobe Illustrator 29.8.7, SVG Export Plug-In . SVG Version: 2.1.1 Build 1)  -->
  <defs>
    <style>
      .st0, .st1, .st2, .st3, .st4 {
        isolation: isolate;
      }

      .st0, .st5, .st6 {
        display: none;
      }

      .st7, .st1, .st5, .st3, .st4 {
        fill: #fff;
      }

      .st1 {
        opacity: .6;
      }

      .st3 {
        opacity: .5;
      }

      .st4 {
        font-family: ArialMT, Arial;
        font-size: 12px;
      }
    </style>
  </defs>
  <g id="Layer_11">
    <g id="uuid-d551b3ab-91b4-4415-ae9f-6c961681fd8d">
      <g id="BG" class="st6">
        <path class="st5" d="M-105.9-203.6h640v480H-105.9V-203.6Z"/>
      </g>
      <g id="Art">
        <path class="st7" d="M223.2,17.9h1.2v36.6h-1.2V17.9Z"/>
        <g class="st6">
          <path class="st7" d="M198.8,34.3v-2.5h-2.9v-3.5h-2.5v3.5h-2.3v2.5h2.3v7.1c0,2.1,1.7,3.8,3.8,3.8h1.6v-2.5h-1.6c-.7,0-1.3-.6-1.3-1.3v-7.1h2.9ZM184.5,31.6c2.6,0,4.8,2.1,4.8,4.8v4c0,2.6-2.1,4.8-4.8,4.8h-.9c-2.6,0-4.8-2.2-4.8-4.8v-4c0-2.6,2.2-4.8,4.8-4.8,0,0,.9,0,.9,0ZM181.3,36.4v4c0,1.3,1.1,2.3,2.3,2.3h.9c1.3,0,2.3-1,2.3-2.3v-4c0-1.3-1-2.3-2.3-2.3h-.9c-1.3,0-2.3,1-2.3,2.3ZM176.1,36.4v4c0,2.6-2.1,4.8-4.8,4.8h-.3c-1.1,0-2.1-.4-2.9-1v5.3h-2.5v-17.6h2.5v.8c.8-.7,1.8-1,2.9-1h.3c2.6,0,4.8,2.1,4.8,4.8h0v-.1ZM173.7,36.4c0-1.3-1-2.3-2.3-2.3h-.9c-1.3,0-2.3,1-2.3,2.3v4c0,1.3,1.1,2.3,2.3,2.3h.9c1.3,0,2.3-1,2.3-2.3v-4ZM154.1,40.9c.2,1,1.2,1.8,2.3,1.8h1.7c1.3,0,2.3-1,2.3-2.3s-.9-2.3-2.2-2.8l-2.3-.8c-2.1-.8-3.9-2.2-3.9-4.8s2.1-4.8,4.8-4.8h1.2c2.2,0,4.1,1.5,4.6,3.6l-2.4.7c-.2-1-1.1-1.8-2.2-1.8h-1.2c-1.3,0-2.3,1-2.3,2.3s.4,1.8,2.3,2.5l2.3.9c2.3.9,3.7,2.7,3.7,5.1s-2.2,4.8-4.8,4.8h-1.7c-2.2,0-4.1-1.5-4.6-3.6l2.4-.7h0v-.1ZM149.4,34.3v-2.5h-2.9v-3.5h-2.5v3.5h-2.3v2.5h2.3v7.1c0,2.1,1.7,3.8,3.8,3.8h1.6v-2.5h-1.6c-.7,0-1.3-.6-1.3-1.3v-7.1h2.9ZM139.6,36.4v8.5h-2.5v-8.5c0-1.3-1-2.3-2.3-2.3h-.9c-1.3,0-2.3,1-2.3,2.3v8.5h-2.5v-17.6h2.5v5.3c.8-.7,1.8-1,2.9-1h.3c2.6,0,4.8,2.1,4.8,4.8ZM125.9,31.8v13c0,2.6-2.1,4.8-4.8,4.8h-1c-2.2,0-4.1-1.5-4.6-3.6l2.4-.7c.2,1,1.2,1.8,2.3,1.8h1c1.3,0,2.3-1,2.3-2.3v-1.5c-.8.7-1.8,1-2.9,1h-.3c-2.6,0-4.8-2.1-4.8-4.8v-3.2c0-2.6,2.2-4.8,4.8-4.8h.3c1.1,0,2.1.4,2.9,1v-.8h2.5-.1v.1ZM123.5,39.6v-3.2c0-1.3-1-2.3-2.3-2.3h-.9c-1.3,0-2.3,1-2.3,2.3v3.2c0,1.3,1.1,2.3,2.3,2.3h.9c1.3,0,2.3-1.1,2.3-2.3ZM104.7,31.8v8.5c0,1.3,1,2.3,2.3,2.3h.9c1.3,0,2.3-1,2.3-2.3v-8.5h2.5v8.5c0,2.6-2.1,4.8-4.8,4.8h-.9c-2.6,0-4.8-2.1-4.8-4.8v-8.5h2.5ZM94.6,31.6c2.6,0,4.8,2.1,4.8,4.8v4c0,2.6-2.1,4.8-4.8,4.8h-.9c-2.6,0-4.8-2.2-4.8-4.8v-4c0-2.6,2.2-4.8,4.8-4.8,0,0,.9,0,.9,0ZM91.4,36.4v4c0,1.3,1.1,2.3,2.3,2.3h.9c1.3,0,2.3-1,2.3-2.3v-4c0-1.3-1-2.3-2.3-2.3h-.9c-1.3,0-2.3,1-2.3,2.3ZM86,36.4v8.5h-2.5v-8.5c0-1.3-1-2.3-2.3-2.3h-.9c-1.3,0-2.3,1-2.3,2.3v8.5h-2.5v-17.6h2.5v5.3c.8-.7,1.8-1,2.9-1h.3c2.6,0,4.8,2.1,4.8,4.8ZM73,27.4v2.5h-4.9v15.1h-2.5v-15.1h-4.9v-2.5h12.4-.1Z"/>
          <circle class="st7" cx="37.1" cy="51.1" r="4.9"/>
          <path class="st7" d="M41.6,26.4H2.7v2.4h13.4v26.9h2.4v-26.9h2.4v26.9h2.5v-26.9h2.4v26.9h2.4v-26.9h13.4s0-2.4,0-2.4ZM2.7,21.5h39v2.4H2.7v-2.4ZM2.7,16.7h39v2.4H2.7v-2.4Z"/>
        </g>
      </g>
      <g id="Guides__x28_DELETE_THIS_LAYER_x29_" class="st6">
        <path class="st1" d="M-21.7-7.5v87.7h464.2V-7.5H-21.7ZM2.7,16.9h196.2v39H2.7V16.9ZM418.1,55.9h-169.3V16.9h169.3v39Z"/>
        <path class="st3" d="M-46.1-31.9V104.6H466.9V-31.9s-513,0-513,0ZM198.8,80.2H-21.7V-7.5h464.2v87.7h-243.7Z"/>
        <path class="st7" d="M248.8,16.9h169.3v39h-169.3V16.9Z"/>
        <g class="st0">
          <g class="st0">
            <g class="st0">
              <text class="st4" transform="translate(281.4 40.9)"><tspan x="0" y="0">Fit logo in this area</tspan></text>
            </g>
          </g>
        </g>
      </g>
      <path id="Layer_4" class="st5" d="M249.3,30.3h5.7c4.2.2,7,2.7,7,7.1s-1.1,5-2.9,6c-1.6,1.1-3.5,1.2-6.2,1.2h-3.5v-14.3h-.1ZM252.6,41.9h1.1c.8,0,1.6,0,2.1-.3,1.7-.5,2.6-1.8,2.6-4.1s-.9-3.6-2.6-4.1c-.5-.2-1.2-.3-1.9-.3h-1.3v8.8h0ZM278,37.5c0,4.6-2.9,7.4-7.3,7.4s-7.2-2.8-7.2-7.4,2.9-7.4,7.3-7.4,7.3,2.9,7.3,7.4h-.1ZM274.5,37.5c0-2.9-1.4-4.7-3.8-4.7s-3.8,1.8-3.8,4.7,1.4,4.6,3.8,4.6,3.8-1.8,3.8-4.6ZM293.6,40.2c-.9,3-3.4,4.7-6.9,4.7s-7.2-2.8-7.2-7.4,2.9-7.4,7.3-7.4,6,1.8,6.9,4.9h-3.6c-.6-1.4-1.7-2.2-3.3-2.2-2.4,0-3.8,1.8-3.8,4.7s1.4,4.6,3.8,4.6,2.5-.7,3.2-1.9h3.7s-.1,0-.1,0ZM298.1,40.3c.2,1.3,1,2,2.5,2s2.2-.7,2.2-1.7-.7-1.2-2.3-1.7l-1-.3c-3.2-.9-4.4-2.1-4.4-4.3s2.1-4.3,5.4-4.3,5.2,1.5,5.3,4.3h-3.3c-.2-1.1-.9-1.7-2.2-1.7s-1.9.6-1.9,1.4.7,1.3,1.8,1.6l1.1.3c3.2.9,4.8,1.9,4.8,4.4s-2.3,4.5-5.7,4.5-5.6-1.7-5.7-4.6h3.4v.1Z"/>
    </g>
    <path id="Layer_2" class="st7" d="M155,35.7c-.9-.5-2-.9-3.5-1.3-1.2-.3-2.1-.6-2.7-.8-.6-.2-1-.5-1.2-.8s-.3-.7-.3-1.1c0-.7.3-1.3.8-1.8.6-.5,1.4-.7,2.3-.7s1.5.1,2,.4,1,.7,1.3,1.2.5,1.1.6,1.7v.3h2.8v-.5c-.2-1.1-.5-2-1.1-2.9s-1.3-1.5-2.2-2-2.1-.7-3.3-.7-2.3.2-3.1.6c-.9.4-1.6,1-2.1,1.8s-.7,1.7-.7,2.7.2,1.7.6,2.3c.4.6,1,1.1,1.8,1.6.8.4,1.9.8,3.2,1.1s2.4.7,3,1,1.1.7,1.3,1,.3.8.3,1.3-.1,1-.4,1.3c-.3.3-.7.6-1.2.8s-1.2.3-1.9.3-1.6,0-2.2-.4c-.6-.3-1.1-.7-1.4-1.2-.4-.6-.6-1.2-.7-2v-.3h-2.7v.5c.1,1.2.5,2.3,1.1,3.2s1.4,1.6,2.4,2.1,2.2.8,3.6.8,2.3-.2,3.2-.6c.9-.4,1.7-1,2.2-1.8s.8-1.7.8-2.7-.2-1.6-.6-2.3c-.4-.7-1-1.3-1.9-1.8v-.3h-.1ZM46.4,29.4h4.9v15.3h2.6v-15.3h5.2v-2.6h-12.7s0,2.6,0,2.6ZM100,39.1c0,1.8-1.5,3.3-3.3,3.3s-3.3-1.5-3.3-3.3v-7.8h-2.6v7.8c0,3.2,2.6,5.9,5.9,5.9s5.9-2.6,5.9-5.9v-7.8h-2.6v7.8ZM81.7,31.1c-3.8,0-6.9,3.1-6.9,6.9s3.1,6.9,6.9,6.9,6.9-3.1,6.9-6.9-3.1-6.9-6.9-6.9ZM81.7,42.4c-2.4,0-4.3-1.9-4.3-4.3s1.9-4.3,4.3-4.3,4.3,1.9,4.3,4.3-1.9,4.3-4.3,4.3ZM182.1,31.1c-3.8,0-6.9,3.1-6.9,6.9s3.1,6.9,6.9,6.9,6.9-3.1,6.9-6.9-3.1-6.9-6.9-6.9ZM182.1,42.4c-2.4,0-4.3-1.9-4.3-4.3s1.9-4.3,4.3-4.3,4.3,1.9,4.3,4.3-1.9,4.3-4.3,4.3ZM195.5,26.8h-2.6v4.5h-3.3v2.6h3.3v7c0,2.1,1.7,3.8,3.8,3.8h2.2v-2.6h-2.2c-.7,0-1.2-.5-1.2-1.2v-7h3.4v-2.6h-3.4s0-4.5,0-4.5ZM125.9,31.1c-1.5,0-2.7.6-3.6,1.5h-.4l.4-1.8v-3.9h-2.6v17.9h2.6v-7.7c0-1.8,1.5-3.3,3.3-3.3s3.3,1.5,3.3,3.3v7.7h2.6v-7.7c0-3.3-2.4-5.9-5.6-5.9h0v-.1ZM166.9,31.1c-1.9,0-3.5.7-4.7,2h-.4l.4-1.7h-2.6v20.4h2.6v-6.9l-.4-1.8h.4c1.1,1.2,2.7,2,4.7,2,3.6,0,6.6-3.1,6.6-6.9s-3.1-6.9-6.6-6.9c0,0,0-.2,0-.2ZM166.6,42.4c-2.4,0-4.3-1.9-4.3-4.3s1.9-4.3,4.3-4.3,4.3,1.9,4.3,4.3-1.9,4.3-4.3,4.3ZM67.2,31.1c-1.5,0-2.7.6-3.6,1.5h-.4l.4-1.8v-3.9h-2.6v17.9h2.6v-7.7c0-1.8,1.5-3.3,3.3-3.3s3.3,1.5,3.3,3.3v7.7h2.6v-7.7c0-3.3-2.4-5.9-5.6-5.9h0v-.1ZM2,21.2h30.5v5.7H2v-5.7ZM20.9,28.7h11.6v5.7h-11.6v-5.7ZM9.4,28.7H2v5.7h7.4c2.8,0,5,2.3,5,5v12.3h5.7v-12.3c0-5.9-4.8-10.7-10.7-10.7ZM26.7,42.6c-2.6,0-4.7,2.1-4.7,4.7s2.1,4.7,4.7,4.7,4.7-2.1,4.7-4.7-2.1-4.7-4.7-4.7ZM117.6,32.5c0-.8-.7-1.4-1.4-1.4s-1.4.7-1.4,1.4v.3c-1-1.1-2.5-1.7-4.1-1.7-3.1,0-5.7,2.5-5.7,5.7s.6,2.9,1.7,3.9l-.8.8c-.9.9-1.1,2.2-.7,3.3s1.6,1.9,2.8,1.9h5.6c.7,0,1.2.5,1.2,1.2s-.5,1.2-1.2,1.2h-9.1v2.6h9.1c2.1,0,3.8-1.7,3.8-3.8s-1.7-3.8-3.8-3.8h-6.4v-.4l1.7-1.8c.5,0,1.1.2,1.7.2,3.1,0,5.7-2.3,5.7-5.4s-.3-2.1-.8-2.9h.6c.8,0,1.4-.7,1.4-1.4h.1v.1ZM110.7,39.9c-1.7,0-3.1-1.4-3.1-3.1s1.4-3.1,3.1-3.1,3.1,1.4,3.1,3.1-1.4,3.1-3.1,3.1ZM138.4,26.8h-2.6v4.5h-3.3v2.6h3.3v7c0,2.1,1.7,3.8,3.8,3.8h2.2v-2.6h-2.2c-.7,0-1.2-.5-1.2-1.2v-7h3.4v-2.6h-3.4s0-4.5,0-4.5Z"/>
  </g>
  <g id="Layer_21">
    <g class="st2">
      <g>
        <path class="st7" d="M249.8,44.7v-14.2h4.9c2.3,0,4.1.6,5.3,1.9,1.2,1.3,1.9,3,1.9,5.3s-.6,4-1.8,5.2c-1.2,1.2-3,1.8-5.2,1.8h-5.1ZM252.9,42.2h1.9c1.4,0,2.4-.4,3.1-1.1.7-.7,1-1.9,1-3.4s-.3-2.7-1-3.4-1.7-1.1-3.1-1.1h-1.9v9.1-.1Z"/>
        <path class="st7" d="M271,45.1c-1.4,0-2.7-.3-3.7-.9s-1.8-1.5-2.4-2.6-.8-2.4-.8-3.9.3-2.8.8-4c.6-1.1,1.3-2,2.4-2.6,1-.6,2.3-.9,3.7-.9s2.7.3,3.7.9,1.8,1.5,2.4,2.6.8,2.4.8,4-.3,2.8-.8,3.9-1.3,2-2.4,2.6-2.3.9-3.7.9ZM271,42.5c.8,0,1.5-.2,2-.6.6-.4,1-.9,1.3-1.7.3-.7.4-1.6.4-2.6s-.2-1.9-.4-2.6c-.3-.7-.7-1.3-1.3-1.7s-1.2-.6-2-.6-1.5.2-2,.6-1,.9-1.3,1.7-.5,1.6-.5,2.6.2,1.9.5,2.6.7,1.3,1.3,1.7c.6.4,1.2.6,2,.6Z"/>
        <path class="st7" d="M286.8,45.1c-1.3,0-2.4-.3-3.5-.9-1-.6-1.8-1.4-2.4-2.5s-.9-2.4-.9-4,.3-2.8.8-3.9,1.3-2,2.3-2.6,2.2-.9,3.6-.9,3.3.5,4.3,1.4,1.7,2.2,2,3.9h-3.2c-.2-.8-.5-1.5-1-2s-1.2-.8-2.1-.8-1.4.2-1.9.6c-.5.4-.9,1-1.2,1.7-.3.7-.4,1.6-.4,2.6s.1,1.9.4,2.6c.3.7.7,1.3,1.2,1.7s1.2.6,1.9.6,1.7-.3,2.2-.8.9-1.3,1-2.2h3.2c-.2,1.3-.6,2.3-1.1,3.1s-1.3,1.4-2.1,1.9c-.9.4-2,.7-3.2.7l.1-.2Z"/>
        <path class="st7" d="M301.6,45.1c-1.2,0-2.3-.2-3.2-.6-.9-.4-1.6-1-2.1-1.7s-.8-1.6-.8-2.6h3.1c0,.4.2.9.5,1.3s.6.7,1,.9.9.3,1.5.3.9,0,1.3-.2.6-.3.8-.5c.2-.2.3-.6.3-.9s0-.6-.2-.9-.5-.5-.9-.7c-.5-.2-1.1-.4-2-.6-1.2-.3-2.2-.6-2.9-.9-.7-.3-1.3-.8-1.6-1.3-.3-.5-.5-1.2-.5-2s.2-1.6.6-2.2c.4-.6,1-1.1,1.8-1.5s1.8-.5,2.9-.5,2.2.2,3,.6,1.5,1,1.9,1.7.7,1.5.8,2.5l-3,.2c0-.5-.2-.9-.4-1.3-.2-.4-.5-.7-.9-.9s-.9-.3-1.4-.3-1.2.2-1.6.5-.6.7-.6,1.2,0,.6.3.9c.2.2.5.4.9.6.4.2,1,.3,1.8.5,1.3.3,2.4.6,3.1,1,.8.4,1.3.9,1.6,1.4.3.6.5,1.2.5,1.9s-.2,1.6-.7,2.3c-.4.6-1.1,1.1-1.9,1.5-.8.3-1.8.5-2.9.5l-.1-.2Z"/>
      </g>
    </g>
  </g>
</svg>